<svg width="38" height="39" viewBox="0 0 38 39" fill="none" xmlns="http://www.w3.org/2000/svg">
<g clip-path="url(#clip0_1_15806)">
<path d="M36.0885 13.0623C35.8229 13.2328 31.1342 15.4192 31.1342 20.2807C31.1342 25.9039 37.1004 27.8932 37.279 27.9425C37.2515 28.0638 36.3312 30.6669 34.1334 33.3194C32.1736 35.6535 30.1269 37.9839 27.0133 37.9839C23.8997 37.9839 23.0984 36.4872 19.504 36.4872C16.0013 36.4872 14.7558 38.0332 11.9078 38.0332C9.05978 38.0332 7.07257 35.8733 4.78774 33.2209C2.14119 30.1061 0.002882 25.2673 0.002882 20.6748C0.002882 13.3086 5.7905 9.40193 11.4865 9.40193C14.5131 9.40193 17.0361 11.0464 18.9363 11.0464C20.7449 11.0464 23.5655 9.3034 27.0087 9.3034C28.3137 9.3034 33.0024 9.40192 36.0885 13.0623ZM25.3741 6.18489C26.7981 4.78667 27.8054 2.8466 27.8054 0.906528C27.8054 0.637494 27.778 0.364671 27.7184 0.144897C25.4016 0.216892 22.6451 1.42186 20.983 3.01711C19.678 4.24482 18.4601 6.18489 18.4601 8.15149C18.4601 8.44705 18.5196 8.7426 18.5471 8.83733C18.6936 8.86007 18.9317 8.88659 19.1698 8.88659C21.2486 8.88659 23.8631 7.73467 25.3741 6.18489Z" fill="black"/>
</g>
<defs>
<clipPath id="clip0_1_15806">
<rect width="37.2715" height="37.892" fill="white" transform="translate(0.002882 0.144897)"/>
</clipPath>
</defs>
</svg>
