<svg width="20" height="20" viewBox="0 0 20 20" fill="none" xmlns="http://www.w3.org/2000/svg">
<path d="M10.4262 19.5485C3.83485 19.5485 2.07376 12.6774 2.86982 8.17554C2.90446 7.9796 3.1613 7.92315 3.27321 8.08769C3.61978 8.59706 3.92817 9.3328 4.43915 9.26894C5.20716 9.17292 5.73923 2.39605 10.291 0.489211C10.4354 0.428703 10.5866 0.543508 10.5707 0.699289C10.3456 2.90761 11.6715 6.06913 14.0206 6.06913C15.3671 6.06913 16.2884 4.99444 16.7488 3.91515C16.8887 3.5873 17.3677 3.62862 17.4479 3.97593C18.2694 7.53382 20.4655 19.5485 10.4262 19.5485Z" fill="#FF8F1F"/>
<path d="M8.11548 12.9229C8.27048 12.7926 8.50579 12.882 8.54099 13.0814C8.62333 13.5479 8.89411 14.3497 9.78232 14.3497C10.8508 14.3497 11.5758 11.4097 11.766 10.545C11.7973 10.4028 11.9359 10.3062 12.0786 10.3352C14.7488 10.8781 16.047 19.5484 10.1762 19.5484C5.90228 19.5484 6.87052 13.9687 8.11548 12.9229ZM15.4116 3.5333C15.5057 2.79728 14.1621 4.81037 14.1621 4.81037C14.1621 4.81037 15.1865 5.2942 15.4116 3.5333ZM1.87356 14.5099C1.90189 14.1966 1.4988 13.3577 1.42743 13.6899C1.25661 14.4846 1.84524 14.8233 1.87356 14.5099Z" fill="#FFB636"/>
<path d="M12.624 13.6171C12.5239 13.1995 12.1649 14.1694 12.21 14.5645C12.2551 14.9595 12.8635 14.6161 12.624 13.6171Z" fill="#FFD469"/>
</svg>
