<svg width="19" height="14" viewBox="0 0 19 14" fill="none" xmlns="http://www.w3.org/2000/svg">
<path d="M6.74842 13.8747C9.95323 13.8747 12.5753 13.1057 14.9477 12.0939V13.6724H18.319V7.31809C18.2774 2.54226 15.1975 0.92334 9.78674 0.92334C6.99814 0.92334 4.45927 1.40902 1.83715 2.25895L3.04415 4.60639C5.79113 3.79693 7.9138 3.63504 9.57864 3.63504C11.3683 3.63504 14.9477 3.87788 14.9477 6.50863C13.0748 5.90153 10.9105 5.4968 8.53812 5.4968C4.37602 5.4968 0.755005 6.58957 0.755005 9.86789C0.755005 12.7415 2.87767 13.8747 6.74842 13.8747ZM7.66408 11.4059C5.49979 11.4059 4.1263 11.2844 4.1263 9.78695C4.1263 8.37039 5.95762 7.84424 8.87108 7.84424C11.5348 7.84424 13.4494 8.24897 14.9477 8.73465V9.82742C12.8251 10.6774 9.78674 11.4059 7.66408 11.4059Z" fill="white"/>
</svg>
