<svg width="29" height="14" viewBox="0 0 29 14" fill="none" xmlns="http://www.w3.org/2000/svg">
<path d="M0.119751 13.6724H3.49104V6.1039C4.53157 4.97065 6.90396 3.71598 9.35959 3.71598C12.2314 3.71598 12.6476 5.25396 12.6476 8.0466V13.6724H16.0189L16.0606 7.35856C16.0606 6.83241 16.0189 6.26579 15.9773 5.78011C17.1843 4.72781 19.307 3.71598 21.5129 3.71598C24.3847 3.71598 24.801 5.25396 24.801 8.0466V13.6724H28.1722L28.2139 6.79194C28.1722 2.17801 25.675 0.92334 22.595 0.92334C19.3902 0.92334 16.9762 2.01611 15.2698 3.23031C14.2709 1.48996 12.4395 0.92334 10.4001 0.92334C7.23693 0.92334 4.94778 2.05659 3.49104 3.14936V1.16618H0.119751V13.6724Z" fill="white"/>
</svg>
