<svg width="41" height="19" viewBox="0 0 41 19" fill="none" xmlns="http://www.w3.org/2000/svg">
<path d="M0.0714111 18.9393H4.89944V8.13295C6.39779 6.51403 9.76908 4.73321 13.2236 4.73321C17.3441 4.73321 17.9684 6.91876 17.9684 10.8851V18.9393H22.7548L22.8381 9.95424C22.8381 9.14478 22.7548 8.41626 22.7132 7.68775C24.4613 6.14977 27.458 4.73321 30.5795 4.73321C34.7 4.73321 35.2827 6.91876 35.2827 10.8851V18.9393H40.1107L40.1524 9.1043C40.1107 2.54766 36.5313 0.766846 32.1195 0.766846C27.5828 0.766846 24.1283 2.30482 21.6727 4.04517C20.2576 1.53583 17.6771 0.766846 14.7636 0.766846C10.2269 0.766846 6.98048 2.38577 4.89944 3.92375V1.05016H0.0714111V18.9393Z" fill="#5991FF"/>
</svg>
