<svg width="36" height="17" viewBox="0 0 36 17" fill="none" xmlns="http://www.w3.org/2000/svg">
<path d="M0.431519 16.2531H4.67685V6.82286C5.9671 5.36583 8.96381 3.82785 11.9605 3.82785C15.5815 3.82785 16.081 5.73009 16.081 9.21077V16.2531H20.3263L20.3679 8.40131C20.3679 7.6728 20.3263 7.02523 20.2431 6.41813C21.783 5.08252 24.4468 3.82785 27.1521 3.82785C30.7732 3.82785 31.2726 5.73009 31.2726 9.21077V16.2531H35.4763L35.5596 7.63232C35.4763 1.92562 32.3548 0.347168 28.5256 0.347168C24.53 0.347168 21.5333 1.68278 19.369 3.18028C18.1204 1.03521 15.8729 0.347168 13.334 0.347168C9.33839 0.347168 6.50817 1.76373 4.67685 3.09934V0.590006H0.431519V16.2531Z" fill="#5991FF"/>
</svg>
