<svg width="22" height="17" viewBox="0 0 22 17" fill="none" xmlns="http://www.w3.org/2000/svg">
<path d="M7.52118 16.2771C11.5584 16.2771 14.8048 15.2653 17.7599 14.0511V15.9938H21.9636V8.06109C21.922 2.11155 18.0513 0.0878906 11.3087 0.0878906C7.85415 0.0878906 4.64934 0.654514 1.36129 1.70681L2.90126 4.66135C6.3558 3.64952 8.97792 3.48763 11.059 3.48763C13.2649 3.48763 17.7599 3.73047 17.7599 7.04926C15.4708 6.32075 12.6822 5.7946 9.76871 5.7946C4.60772 5.7946 0.0294189 7.17068 0.0294189 11.218C0.0294189 14.8201 2.73478 16.2771 7.52118 16.2771ZM8.68657 13.1607C5.98121 13.1607 4.23313 13.0393 4.23313 11.137C4.23313 9.35623 6.52228 8.70866 10.1849 8.70866C13.5146 8.70866 15.9286 9.23481 17.7599 9.80143V11.218C15.1378 12.2703 11.3087 13.1607 8.68657 13.1607Z" fill="white"/>
</svg>
