<svg width="23" height="17" viewBox="0 0 23 17" fill="none" xmlns="http://www.w3.org/2000/svg">
<path d="M8.29316 16.2771C12.3304 16.2771 15.5768 15.2653 18.5319 14.0511V15.9938H22.7356V8.06109C22.694 2.11155 18.8232 0.0878906 12.0807 0.0878906C8.62612 0.0878906 5.42131 0.654514 2.13326 1.70681L3.67324 4.66135C7.12777 3.64952 9.74989 3.48763 11.8309 3.48763C14.0368 3.48763 18.5319 3.73047 18.5319 7.04926C16.2428 6.32075 13.4542 5.7946 10.5407 5.7946C5.37969 5.7946 0.801392 7.17068 0.801392 11.218C0.801392 14.8201 3.50675 16.2771 8.29316 16.2771ZM9.45854 13.1607C6.75318 13.1607 5.0051 13.0393 5.0051 11.137C5.0051 9.35623 7.29426 8.70866 10.9569 8.70866C14.2866 8.70866 16.7006 9.23481 18.5319 9.80143V11.218C15.9098 12.2703 12.0807 13.1607 9.45854 13.1607Z" fill="white"/>
</svg>
