<svg width="49" height="41" viewBox="0 0 49 41" fill="none" xmlns="http://www.w3.org/2000/svg">
<path d="M4.8999 4.78496V35.4009C4.90015 35.4673 4.92404 35.5322 4.96857 35.5874C5.0131 35.6426 5.07629 35.6857 5.15022 35.7112C5.22416 35.7368 5.30553 35.7436 5.38415 35.731C5.46277 35.7183 5.53514 35.6867 5.59217 35.64L24.8131 20.0937L5.59217 4.5458C5.53514 4.49917 5.46277 4.46753 5.38415 4.45487C5.30553 4.44221 5.22416 4.44908 5.15022 4.47462C5.07629 4.50016 5.0131 4.54324 4.96857 4.59845C4.92404 4.65366 4.90015 4.71854 4.8999 4.78496Z" fill="white"/>
<path d="M32.8724 13.7056L8.77171 2.69327L8.75668 2.68626C8.34151 2.49929 7.947 2.96515 8.28703 3.23626L27.1792 18.2186L32.8724 13.7056Z" fill="white"/>
<path d="M8.2889 36.9511C7.94699 37.2222 8.3415 37.6881 8.75855 37.5011L8.77358 37.4941L32.8723 26.4817L27.1792 21.9673L8.2889 36.9511Z" fill="white"/>
<path d="M42.6016 18.1461L35.8715 15.0721L29.5435 20.0937L35.8715 25.113L42.6016 22.0413C44.4324 21.2023 44.4324 18.9851 42.6016 18.1461Z" fill="white"/>
</svg>
