<svg width="20" height="20" viewBox="0 0 20 20" fill="none" xmlns="http://www.w3.org/2000/svg">
<path d="M7.30832 12.025L8.64999 12.6249C9.50832 13.0083 10.4917 13.0083 11.3583 12.6249L12.7 12.025C13.9 11.4916 15.0083 12.9416 14.175 13.9583L11.2917 17.4833C10.5833 18.3499 9.42499 18.3499 8.70832 17.4833L5.83332 13.9583C4.99166 12.9416 6.09999 11.4916 7.30832 12.025Z" fill="white"/>
<path d="M7.14163 9.72498C6.89163 9.90831 6.92496 10.2916 7.20829 10.4333L9.16663 11.4083C9.62496 11.6416 10.3666 11.6416 10.8166 11.4083L12.775 10.4333C13.05 10.2916 13.0833 9.91664 12.8416 9.72498L10.25 7.77498C10.1 7.66664 9.89996 7.66664 9.74996 7.77498L7.14163 9.72498Z" fill="white"/>
<path d="M14.9 6.86664L11.425 2.5333C11.3583 2.44997 11.2833 2.37497 11.2083 2.29997C10.9917 2.09164 10.6833 2.2833 10.6833 2.5833V6.16664C10.6833 6.29997 10.7417 6.42497 10.85 6.49997L14.3083 9.09997L14.4583 9.2083C14.6083 9.31664 14.8167 9.31664 14.9417 9.1833C15.525 8.54997 15.5167 7.6333 14.9 6.86664Z" fill="white"/>
<path d="M5.09169 6.94166L8.55002 2.54166C8.61669 2.45833 8.68336 2.38333 8.75836 2.30833C8.97502 2.09999 9.28335 2.28333 9.28335 2.59166V6.23333C9.28335 6.36666 9.22502 6.48333 9.11669 6.56666L5.67502 9.20833L5.53335 9.31666C5.38335 9.42499 5.17502 9.42499 5.04169 9.28333C4.47502 8.64166 4.48336 7.72499 5.09169 6.94166Z" fill="white"/>
</svg>
